<svg xmlns="http://www.w3.org/2000/svg" viewBox="0 0 697.01 159.86">
  <g id="Layer_2" data-name="Layer 2">
    <g id="Layer_1-2" data-name="Layer 1">
      <polygon points="58.96 0 0 159.86 138 159.86 153.8 115.61 70.78 115.61 112.15 0 58.96 0"/>
      <path d="M270.89,0h-68L146.05,159.86h53.19l11.08-26.52h53.19l11.08,26.52h53.18Zm-34,97.88H221.4l15.51-37.67,15.52,37.67Z"/>
      <path d="M563.35,0V36.74A50,50,0,0,0,515.27,0H472.68c-25.08,0-50.11,18.15-50.11,42.48v.11C422.57,20.8,396.56,0,371.9,0H279l56.87,159.86h32.92c30.6,0,53.83-21.49,53.83-44.83v0a50.38,50.38,0,0,0,50.11,44.86h42.59a50.12,50.12,0,0,0,50.12-50.11V43.47h40.15V159.86h49.28V43.47H697V0ZM374.7,99.43A15.58,15.58,0,0,1,359.13,115H324.49V44.15h34.64A15.57,15.57,0,0,1,374.7,59.72Zm141.89,1.75a15.21,15.21,0,0,1-15.21,15.21H486.57a15.21,15.21,0,0,1-15.21-15.21V58.68a15.21,15.21,0,0,1,15.21-15.21h14.81a15.21,15.21,0,0,1,15.21,15.21Z"/>
    </g>
  </g>
</svg>
