<svg xmlns="http://www.w3.org/2000/svg" viewBox="0 0 81.62 12.03">
  <defs>
    <style>
      .cls-1 {
        fill: #fff;
      }
    </style>
  </defs>
  <g id="Layer_2" data-name="Layer 2">
    <g id="Layer_1-2" data-name="Layer 1">
      <g>
        <path class="cls-1" d="M32.58,2.05a3.23,3.23,0,0,0-2.64,1.32,3.32,3.32,0,0,1,1-.15,3.87,3.87,0,0,1,2.79,1.39l1.64-1.16h0A3.88,3.88,0,0,0,32.58,2.05Z"/>
        <g>
          <polygon class="cls-1" points="17.82 2.56 16.76 5.15 17.4 6.72 19.5 6.72 17.82 2.56"/>
          <polygon class="cls-1" points="21.58 10.75 21.13 10.75 20.28 8.67 15.32 8.67 14.85 9.84 18.65 9.84 19.49 11.92 22.08 11.92 23.71 10.75 21.58 10.75"/>
          <polygon class="cls-1" points="11.98 10.75 16.64 0.03 15.01 1.2 10.35 11.92 12.85 11.92 14.48 10.75 13.32 10.75 11.98 10.75"/>
        </g>
        <polygon class="cls-1" points="1.64 10.75 1.64 10.74 1.64 0.03 1.64 0 0 1.2 0 11.92 7.01 11.92 8.63 10.75 1.64 10.75"/>
        <path class="cls-1" d="M35.88,9.71l-.12.09-.35.21-.17.1-.35.17-.15.08a5.27,5.27,0,0,1-.51.19l-.09,0a3.17,3.17,0,0,1-.44.12l-.17,0-.38.07-.16,0-.53,0a5.85,5.85,0,0,1-3.19-.92,5.35,5.35,0,0,1-2.43-4.56c0-.19,0-.37,0-.55l0-.17c0-.12,0-.24.05-.35a1.46,1.46,0,0,1,0-.2c0-.1.05-.2.08-.31l.06-.2c0-.09.07-.19.11-.28a1.54,1.54,0,0,1,.08-.19l.13-.27a1.62,1.62,0,0,0,.1-.18l.16-.26.12-.17c.06-.08.12-.17.19-.25l.12-.14a3.71,3.71,0,0,1,.27-.29.46.46,0,0,0,.07-.07l.38-.33L29,1.08l.29-.2.17-.1c.09-.05.18-.11.27-.15l.2-.1.27-.12L30.4.33l.29-.1.22-.06L31.22.1l.23,0,.08,0h-.17a5.88,5.88,0,1,0-.1,11.75,6.78,6.78,0,0,0,4.67-2.06l0,0Z"/>
        <g>
          <path class="cls-1" d="M48.35,6.26V0L46.72,1.2V7.43a2.84,2.84,0,0,1-.28,1.28A2.26,2.26,0,0,0,48.35,6.26Z"/>
          <path class="cls-1" d="M46,10.86c-3,0-4.87-1.76-4.87-4.6V0h0L39.46,1.2V7.43c0,2.83,1.9,4.6,4.87,4.6a4.76,4.76,0,0,0,3.81-1.57A5.69,5.69,0,0,1,46,10.86Z"/>
        </g>
        <g>
          <polygon class="cls-1" points="69.89 10.75 74.55 0.03 72.91 1.2 68.26 11.92 70.75 11.92 72.39 10.75 71.23 10.75 69.89 10.75"/>
          <polygon class="cls-1" points="75.73 2.56 74.67 5.15 75.3 6.72 77.41 6.72 75.73 2.56"/>
          <polygon class="cls-1" points="79.49 10.75 79.03 10.75 78.19 8.67 73.23 8.67 72.76 9.84 76.56 9.84 77.4 11.92 79.99 11.92 81.62 10.75 79.49 10.75"/>
        </g>
        <g>
          <polygon class="cls-1" points="63.4 6.92 63.4 0.03 61.77 1.2 61.77 4.76 63.4 6.92"/>
          <polygon class="cls-1" points="55.99 10.75 55.99 0.03 54.35 1.2 54.35 11.92 56.67 11.92 58.3 10.75 56.67 10.75 55.99 10.75"/>
          <polygon class="cls-1" points="63.49 10.75 58.3 3.88 58.3 7.21 61.86 11.92 64.06 11.92 65.7 10.75 64.06 10.75 63.49 10.75"/>
        </g>
      </g>
    </g>
  </g>
</svg>
